<?xml version="1.0" encoding="utf-8"?>
<!-- Generator: Adobe Illustrator 25.0.0, SVG Export Plug-In . SVG Version: 6.00 Build 0)  -->
<svg version="1.1" id="Capa_1" xmlns="http://www.w3.org/2000/svg" xmlns:xlink="http://www.w3.org/1999/xlink" x="0px" y="0px"
	 viewBox="0 0 86.1 107" style="enable-background:new 0 0 86.1 107;" xml:space="preserve">
<style type="text/css">
	.st0{fill:#FFFFFF;}
</style>
<g transform="translate(0 27.015)">
	<path class="st0" d="M25,80c0-0.6,0-1.2,0-1.8c-0.1-0.6,0.2-0.7,0.7-0.7c1.2,0,2.4,0,3.7,0c0.5,0,0.6-0.1,0.6-0.6c0-5,0-10,0-15
		c0-0.6-0.2-0.7-0.7-0.7c-6.5,0-13.1,0-19.6,0c-3,0-6,0-9,0c-0.6,0-0.7-0.2-0.7-0.7c0-1.8,0-1.8,1.7-1.8c0.6,0,0.8-0.2,0.8-0.8
		c0-9.4,0-18.8,0-28.3c0-0.7,0.1-1,0.9-0.9c7.3,0,14.7,0,22,0c0.7,0,0.8,0.2,0.8,0.9c0,9.4,0,18.8,0,28.3c0,0.7,0.1,1,0.9,0.9
		c0.8-0.1,1.5-0.1,2.3,0C30,58.8,30,58.5,30,58c0-4.5,0-9.1,0-13.6c0-14.5,0-29.1,0-43.6C30,0.2,30.1,0,30.7,0c14.5,0,29,0,43.5,0
		C75,0,75,0.3,75,0.9c0,25.2,0,50.5,0,75.7c0,0.7,0.1,1,0.9,0.9c1-0.1,1.9,0,2.9,0c0,0.7,0,1.5,0,2.2c0,0.3,0,0.4-0.3,0.3
		c-0.1,0-0.3,0-0.4,0L25,80z M32.5,39.9c0,0.5,0,1.1,0,1.6c0,11.7,0,23.5,0,35.2c0,0.6,0.2,0.7,0.7,0.7c2.8,0,5.7,0,8.5,0
		c0.6,0,0.8-0.1,0.8-0.8c0-3.5,0-6.9,0-10.4c0-1.4,0.2-2.8,0.8-4c1.7-4,4.8-6.5,9-6.8c6.2-0.5,11.5,4.7,11.4,11c0,3.4,0,6.9,0,10.3
		c0,0.6,0.2,0.7,0.7,0.7c2.4,0,4.9,0,7.3,0c0.5,0,0.7-0.1,0.7-0.7c0-24.5,0-49,0-73.6c0-0.6-0.2-0.8-0.8-0.8c-12.8,0-25.7,0-38.5,0
		c-0.6,0-0.7,0.1-0.7,0.7C32.5,15.5,32.5,27.7,32.5,39.9L32.5,39.9z M23.8,45c0-4.3,0-8.6,0-12.9c0-0.6-0.1-0.9-0.8-0.9
		c-5.7,0-11.4,0-17.2,0C5.2,31.2,5,31.4,5,32c0,8.7,0,17.3,0,26c0,0.5,0.1,0.8,0.7,0.8c5.8,0,11.6,0,17.3,0c0.6,0,0.7-0.1,0.7-0.7
		C23.7,53.7,23.8,49.3,23.8,45L23.8,45z M53.7,67.7c0,3,0,6,0,9.1c0,0.4-0.1,0.7,0.6,0.7c2.1,0,4.3,0,6.4,0c0.4,0,0.5-0.1,0.5-0.5
		c0-3.7,0.1-7.4,0-11.2c-0.1-3.9-2.9-7.2-6.8-7.8c-0.6-0.1-0.7,0.1-0.7,0.6C53.7,61.7,53.7,64.7,53.7,67.7L53.7,67.7z M51.2,67.8
		c0-2.9,0-5.8,0-8.7c0-0.9,0-0.9-0.9-0.6c-3.2,1.1-5.3,4.1-5.3,7.4c-0.1,3.7,0,7.3,0,11c0,0.5,0.2,0.6,0.6,0.6c1.6,0,3.3,0,4.9,0
		c0.6,0,0.7-0.1,0.7-0.7C51.2,73.8,51.2,70.8,51.2,67.8L51.2,67.8z"/>
	<path class="st0" d="M51.2,12c0,2,0,4.1,0,6.1c0,0.5-0.1,0.7-0.7,0.7c-3.7,0-7.5,0-11.2,0c-0.5,0-0.6-0.1-0.6-0.6
		c0-4.2,0-8.4,0-12.6c0-0.5,0.2-0.6,0.6-0.6c3.7,0,7.5,0,11.2,0c0.6,0,0.7,0.2,0.7,0.7C51.2,7.8,51.2,9.9,51.2,12z M48.7,11.9
		L48.7,11.9c0-1.3,0-2.5,0-3.8c0-0.4-0.1-0.6-0.5-0.6c-2.2,0-4.3,0-6.5,0c-0.4,0-0.5,0.1-0.5,0.5c0,2.6,0,5.1,0,7.7
		c0,0.4,0.1,0.5,0.5,0.5c2.1,0,4.3,0,6.4,0c0.5,0,0.6-0.2,0.6-0.6C48.7,14.4,48.7,13.1,48.7,11.9L48.7,11.9z"/>
	<path class="st0" d="M55,11.8c0-2.1,0-4.1,0-6.2C55,5.1,55.1,5,55.6,5c3.7,0,7.5,0,11.2,0c0.5,0,0.6,0.1,0.6,0.6
		c0,4.2,0,8.4,0,12.6c0,0.4-0.1,0.5-0.5,0.5c-3.8,0-7.6,0-11.4,0c-0.5,0-0.6-0.2-0.6-0.6C55,16,55,13.9,55,11.8z M57.5,11.9
		c0,1.3,0,2.5,0,3.8c0,0.4,0.1,0.6,0.6,0.6c2.2,0,4.3,0,6.5,0c0.4,0,0.5-0.1,0.5-0.5c0-2.6,0-5.1,0-7.7c0-0.4-0.1-0.5-0.5-0.5
		c-2.2,0-4.3,0-6.5,0c-0.4,0-0.5,0.1-0.5,0.5C57.5,9.3,57.5,10.6,57.5,11.9L57.5,11.9z"/>
	<path class="st0" d="M67.5,44.5c0,2,0,4.1,0,6.1c0,0.5-0.1,0.7-0.7,0.7c-3.7,0-7.5,0-11.2,0c-0.5,0-0.6-0.1-0.6-0.6
		c0-4.2,0-8.4,0-12.6c0-0.5,0.2-0.6,0.6-0.6c3.7,0,7.5,0,11.2,0c0.5,0,0.7,0.1,0.7,0.6C67.5,40.2,67.5,42.3,67.5,44.5z M65,44.4
		c0-1.2,0-2.5,0-3.7c0-0.5-0.1-0.6-0.6-0.6c-2.1,0-4.3,0-6.4,0c-0.4,0-0.5,0.1-0.5,0.5c0,2.5,0,5.1,0,7.6c0,0.4,0.1,0.6,0.6,0.6
		c2.1,0,4.3,0,6.4,0c0.4,0,0.6-0.1,0.6-0.6C65,46.9,65,45.6,65,44.4z"/>
	<path class="st0" d="M38.7,44.3c0-2.1,0-4.1,0-6.2c0-0.5,0.1-0.7,0.6-0.7c3.7,0,7.5,0,11.2,0c0.5,0,0.7,0.1,0.6,0.7
		c0,4.1,0,8.3,0,12.4c0,0.5-0.1,0.7-0.7,0.7c-3.7,0-7.5,0-11.2,0c-0.5,0-0.6-0.1-0.6-0.6C38.8,48.5,38.7,46.4,38.7,44.3z M41.2,44.4
		L41.2,44.4c0,1.3,0,2.6,0,3.8c0,0.4,0.1,0.6,0.6,0.6c2.1,0,4.3,0,6.4,0c0.5,0,0.6-0.2,0.6-0.6c0-2.5,0-5.1,0-7.6
		c0-0.4-0.1-0.5-0.5-0.5c-2.2,0-4.3,0-6.5,0c-0.4,0-0.5,0.1-0.5,0.5C41.3,41.8,41.2,43.1,41.2,44.4L41.2,44.4z"/>
	<path class="st0" d="M55,28.1c0-2.1,0-4.1,0-6.2c0-0.5,0.1-0.7,0.7-0.7c3.7,0,7.5,0,11.2,0c0.5,0,0.6,0.1,0.6,0.6
		c0,4.2,0,8.4,0,12.6c0,0.5-0.2,0.6-0.6,0.6c-3.8,0-7.5,0-11.3,0C55,35,55,34.8,55,34.4C55,32.3,55,30.2,55,28.1z M57.5,28.1
		L57.5,28.1c0,1.3,0,2.6,0,3.8c0,0.5,0.1,0.6,0.6,0.6c2.1,0,4.2,0,6.3,0c0.5,0,0.6-0.1,0.6-0.6c0-2.5,0-5,0-7.6
		c0-0.4-0.1-0.6-0.5-0.6c-2.1,0-4.3,0-6.4,0c-0.4,0-0.6,0.1-0.6,0.6C57.5,25.6,57.5,26.8,57.5,28.1L57.5,28.1z"/>
	<path class="st0" d="M38.7,28.1c0-2.1,0-4.2,0-6.2c0-0.5,0.1-0.6,0.6-0.6c3.8,0,7.5,0,11.3,0c0.5,0,0.6,0.2,0.6,0.6
		c0,4.2,0,8.4,0,12.6c0,0.4-0.1,0.6-0.6,0.6c-3.8,0-7.6,0-11.4,0c-0.5,0-0.6-0.1-0.6-0.6C38.8,32.3,38.7,30.2,38.7,28.1z M48.7,28.1
		c0-1.2,0-2.5,0-3.7c0-0.5-0.2-0.6-0.7-0.6c-2.1,0-4.2,0-6.2,0c-0.5,0-0.6,0.1-0.6,0.6c0,2.5,0,5,0,7.6c0,0.5,0.2,0.6,0.6,0.6
		c2.1,0,4.2,0,6.3,0c0.5,0,0.6-0.2,0.6-0.6C48.7,30.6,48.7,29.4,48.7,28.1L48.7,28.1z"/>
	<path class="st0" d="M17.5,36.2c0,1.1,0,2.1,0,3.2c0,0.5-0.1,0.6-0.6,0.6c-2.1,0-4.3,0-6.4,0c-0.4,0-0.5-0.1-0.5-0.5
		c0-2.2,0-4.3,0-6.5c0-0.4,0.1-0.5,0.5-0.5c2.1,0,4.3,0,6.4,0c0.5,0,0.6,0.2,0.6,0.6C17.5,34.2,17.5,35.2,17.5,36.2z M12.5,36.2
		c0.1,0.5-0.4,1.4,0.9,1.3c1.7-0.1,1.7,0,1.7-1.4c0-1.2,0-1.1-1.7-1.2C12.1,34.9,12.6,35.7,12.5,36.2L12.5,36.2z"/>
	<path class="st0" d="M13.8,41.2c1,0,2.1,0,3.1,0c0.4,0,0.6,0.1,0.6,0.6c0,2.1,0,4.3,0,6.4c0,0.4-0.1,0.5-0.5,0.5
		c-2.2,0-4.3,0-6.5,0c-0.4,0-0.5-0.1-0.5-0.5c0-2.1,0-4.3,0-6.4c0-0.5,0.2-0.6,0.6-0.6C11.7,41.3,12.7,41.2,13.8,41.2z M13.7,46.2
		c1.3,0,1.3,0,1.3-1.3v-0.1c0-1.1,0-1.1-1.2-1.1c-1.4,0-1.4,0-1.3,1.3C12.5,46.2,12.5,46.2,13.7,46.2L13.7,46.2z"/>
	<path class="st0" d="M13.8,50c1.1,0,2.1,0,3.2,0c0.5,0,0.6,0.1,0.6,0.6c0,2.1,0,4.3,0,6.4c0,0.4-0.1,0.5-0.5,0.5
		c-2.2,0-4.3,0-6.5,0c-0.4,0-0.5-0.1-0.5-0.5c0-2.1,0-4.3,0-6.4c0-0.5,0.2-0.6,0.6-0.6C11.7,50,12.7,50,13.8,50z M15,53.7
		c0-1.2,0-1.2-1.1-1.2c-1.4,0-1.4,0-1.4,1c0,1.5,0,1.5,1.3,1.5C15,55,15,55,15,53.7L15,53.7z"/>
</g>
<path class="st0" d="M3.3,21.4l1.6-4.9l-4.2-3h5.1l1.6-4.9l1.6,4.9h5.1l-4.2,3l1.6,4.9l-4.2-3L3.3,21.4z M7.5,17l2,1.5l-0.8-2.4
	l2-1.5H8.3l-0.8-2.4l-0.8,2.4H4.2l2,1.5l-0.8,2.4L7.5,17z"/>
<path class="st0" d="M75.2,21.4l1.6-4.9l-4.2-3h5.1l1.6-4.9l1.6,4.9h5.1l-4.2,3l1.6,4.9l-4.2-3L75.2,21.4z M79.3,17l2,1.5l-0.8-2.4
	l2-1.5h-2.5l-0.8-2.4l-0.8,2.4H76l2,1.5l-0.8,2.4L79.3,17z"/>
<path class="st0" d="M29.1,19.6l-5.2-3.8l-5.2,3.8l2-6.1l-5.2-3.8h6.4l2-6.1l2,6.1h6.4l-5.2,3.8L29.1,19.6z M23.9,14.1l2.5,1.8l-1-3
	l2.5-1.8h-3.1l-1-3l-1,3h-3.1l2.5,1.8l-1,3L23.9,14.1z"/>
<path class="st0" d="M68.1,19.6l-5.2-3.8l-5.2,3.8l2-6.1l-5.2-3.8H61l2-6.1l2,6.1h6.4l-5.2,3.8L68.1,19.6z M58.8,11.1l2.5,1.8l-1,3
	l2.5-1.8l2.5,1.8l-1-3l2.5-1.8h-3.1l-1-3l-1,3H58.8z"/>
<path class="st0" d="M49.8,19.6L43.4,15L37,19.6l2.4-7.5l-6.4-4.6H41L43.4,0l2.4,7.5h7.9l-6.4,4.6L49.8,19.6z M43.4,13.2l3.7,2.7
	l-1.4-4.4l3.7-2.7h-4.6l-1.4-4.4L42,8.9h-4.6l3.7,2.7l-1.4,4.4L43.4,13.2z"/>
</svg>
